name ./resultDataOpenSim/trcMotMarkerGrf/sub10/grf-15-07.mot
datacolumns 19
datarows 27
range 1.56000000 1.66400000
endheader

                time	     ground_force_vx	     ground_force_vy	     ground_force_vz	     ground_force_px	     ground_force_py	     ground_force_pz	   l_ground_force_vx	   l_ground_force_vy	   l_ground_force_vz	   l_ground_force_px	   l_ground_force_py	   l_ground_force_pz	     ground_torque_x	     ground_torque_y	     ground_torque_z	   l_ground_torque_x	   l_ground_torque_y	   l_ground_torque_z	
          1.56000000	         11.58241734	        425.22528881	          6.46168445	          0.78842466	          0.00000000	         -0.13834754	          0.00000000	          0.00000000	          0.00000000	          0.00000000	          0.00000000	          0.00000000	          0.00000000	          0.39559785	          0.00000000	          0.00000000	          0.00000000	          0.00000000	
          1.56400000	         13.36266289	        423.58622611	          5.50366153	          0.78828817	          0.00000000	         -0.13854579	          0.00000000	          0.00000000	          0.00000000	          0.00000000	          0.00000000	          0.00000000	          0.00000000	          0.55790989	          0.00000000	          0.00000000	          0.00000000	          0.00000000	
          1.56800000	         16.34177352	        421.99764526	          4.86052987	          0.78792762	          0.00000000	         -0.13876394	          0.00000000	          0.00000000	          0.00000000	          0.00000000	          0.00000000	          0.00000000	          0.00000000	          0.77306964	          0.00000000	          0.00000000	          0.00000000	          0.00000000	
          1.57200000	         20.13023913	        420.52256394	          4.68054427	          0.78741289	          0.00000000	         -0.13900415	          0.00000000	          0.00000000	          0.00000000	          0.00000000	          0.00000000	          0.00000000	          0.00000000	          0.99927684	          0.00000000	          0.00000000	          0.00000000	          0.00000000	
          1.57600000	         24.13489203	        419.25415088	          4.99633787	          0.78688811	          0.00000000	         -0.13926528	          0.00000000	          0.00000000	          0.00000000	          0.00000000	          0.00000000	          0.00000000	          0.00000000	          1.18898674	          0.00000000	          0.00000000	          0.00000000	          0.00000000	
          1.58000000	         27.72202381	        418.26887787	          5.73494455	          0.78646975	          0.00000000	         -0.13954456	          0.00000000	          0.00000000	          0.00000000	          0.00000000	          0.00000000	          0.00000000	          0.00000000	          1.30197432	          0.00000000	          0.00000000	          0.00000000	          0.00000000	
          1.58400000	         30.38507032	        417.60969918	          6.74539804	          0.78625020	          0.00000000	         -0.13984421	          0.00000000	          0.00000000	          0.00000000	          0.00000000	          0.00000000	          0.00000000	          0.00000000	          1.31641072	          0.00000000	          0.00000000	          0.00000000	          0.00000000	
          1.58800000	         31.87210258	        417.30730485	          7.83410285	          0.78628232	          0.00000000	         -0.14015807	          0.00000000	          0.00000000	          0.00000000	          0.00000000	          0.00000000	          0.00000000	          0.00000000	          1.23455170	          0.00000000	          0.00000000	          0.00000000	          0.00000000	
          1.59200000	         32.24513548	        417.40338458	          8.79988867	          0.78653559	          0.00000000	         -0.14047708	          0.00000000	          0.00000000	          0.00000000	          0.00000000	          0.00000000	          0.00000000	          0.00000000	          1.08188279	          0.00000000	          0.00000000	          0.00000000	          0.00000000	
          1.59600000	         31.86816694	        417.95652770	          9.46699040	          0.78695587	          0.00000000	         -0.14079587	          0.00000000	          0.00000000	          0.00000000	          0.00000000	          0.00000000	          0.00000000	          0.00000000	          0.90075125	          0.00000000	          0.00000000	          0.00000000	          0.00000000	
          1.60000000	         31.31844425	        419.03460603	          9.71701624	          0.78744237	          0.00000000	         -0.14110491	          0.00000000	          0.00000000	          0.00000000	          0.00000000	          0.00000000	          0.00000000	          0.00000000	          0.74059004	          0.00000000	          0.00000000	          0.00000000	          0.00000000	
          1.60400000	         31.22887313	        420.70005084	          9.51465137	          0.78784427	          0.00000000	         -0.14139743	          0.00000000	          0.00000000	          0.00000000	          0.00000000	          0.00000000	          0.00000000	          0.00000000	          0.64693346	          0.00000000	          0.00000000	          0.00000000	          0.00000000	
          1.60800000	         32.10766172	        423.00250221	          8.91777926	          0.78808631	          0.00000000	         -0.14168035	          0.00000000	          0.00000000	          0.00000000	          0.00000000	          0.00000000	          0.00000000	          0.00000000	          0.65124921	          0.00000000	          0.00000000	          0.00000000	          0.00000000	
          1.61200000	         34.19775043	        425.98194030	          8.06269248	          0.78813381	          0.00000000	         -0.14195745	          0.00000000	          0.00000000	          0.00000000	          0.00000000	          0.00000000	          0.00000000	          0.00000000	          0.76352815	          0.00000000	          0.00000000	          0.00000000	          0.00000000	
          1.61600000	         37.42744848	        429.67335189	          7.12924709	          0.78802216	          0.00000000	         -0.14223154	          0.00000000	          0.00000000	          0.00000000	          0.00000000	          0.00000000	          0.00000000	          0.00000000	          0.96943432	          0.00000000	          0.00000000	          0.00000000	          0.00000000	
          1.62000000	         41.45464734	        434.11511645	          6.30535880	          0.78783518	          0.00000000	         -0.14251394	          0.00000000	          0.00000000	          0.00000000	          0.00000000	          0.00000000	          0.00000000	          0.00000000	          1.23318296	          0.00000000	          0.00000000	          0.00000000	          0.00000000	
          1.62400000	         45.77147722	        439.35308169	          5.75905310	          0.78764787	          0.00000000	         -0.14282509	          0.00000000	          0.00000000	          0.00000000	          0.00000000	          0.00000000	          0.00000000	          0.00000000	          1.50595462	          0.00000000	          0.00000000	          0.00000000	          0.00000000	
          1.62800000	         49.84190357	        445.41994211	          5.61984703	          0.78755608	          0.00000000	         -0.14318239	          0.00000000	          0.00000000	          0.00000000	          0.00000000	          0.00000000	          0.00000000	          0.00000000	          1.73787850	          0.00000000	          0.00000000	          0.00000000	          0.00000000	
          1.63200000	         53.23915336	        452.30141950	          5.97145482	          0.78763858	          0.00000000	         -0.14359679	          0.00000000	          0.00000000	          0.00000000	          0.00000000	          0.00000000	          0.00000000	          0.00000000	          1.89021500	          0.00000000	          0.00000000	          0.00000000	          0.00000000	
          1.63600000	         55.74863497	        459.92149939	          6.84716291	          0.78790612	          0.00000000	         -0.14407013	          0.00000000	          0.00000000	          0.00000000	          0.00000000	          0.00000000	          0.00000000	          0.00000000	          1.94422793	          0.00000000	          0.00000000	          0.00000000	          0.00000000	
          1.64000000	         57.41637938	        468.15631478	          8.22320047	          0.78832427	          0.00000000	         -0.14460015	          0.00000000	          0.00000000	          0.00000000	          0.00000000	          0.00000000	          0.00000000	          0.00000000	          1.90450335	          0.00000000	          0.00000000	          0.00000000	          0.00000000	
          1.64400000	         58.53321867	        476.86722290	         10.01594273	          0.78883233	          0.00000000	         -0.14517809	          0.00000000	          0.00000000	          0.00000000	          0.00000000	          0.00000000	          0.00000000	          0.00000000	          1.79639818	          0.00000000	          0.00000000	          0.00000000	          0.00000000	
          1.64800000	         59.55817951	        485.93913052	         12.08979971	          0.78935173	          0.00000000	         -0.14578786	          0.00000000	          0.00000000	          0.00000000	          0.00000000	          0.00000000	          0.00000000	          0.00000000	          1.65898881	          0.00000000	          0.00000000	          0.00000000	          0.00000000	
          1.65200000	         60.99903434	        495.30544909	         14.28028236	          0.78981433	          0.00000000	         -0.14641351	          0.00000000	          0.00000000	          0.00000000	          0.00000000	          0.00000000	          0.00000000	          0.00000000	          1.53576652	          0.00000000	          0.00000000	          0.00000000	          0.00000000	
          1.65600000	         63.28131895	        504.94493951	         16.42483218	          0.79015866	          0.00000000	         -0.14703918	          0.00000000	          0.00000000	          0.00000000	          0.00000000	          0.00000000	          0.00000000	          0.00000000	          1.46531209	          0.00000000	          0.00000000	          0.00000000	          0.00000000	
          1.66000000	         66.64475355	        514.85705724	         18.38715095	          0.79034094	          0.00000000	         -0.14764773	          0.00000000	          0.00000000	          0.00000000	          0.00000000	          0.00000000	          0.00000000	          0.00000000	          1.47365349	          0.00000000	          0.00000000	          0.00000000	          0.00000000	
          1.66400000	         71.09661143	        525.04195210	         20.07193461	          0.79037113	          0.00000000	         -0.14822444	          0.00000000	          0.00000000	          0.00000000	          0.00000000	          0.00000000	          0.00000000	          0.00000000	          1.56941979	          0.00000000	          0.00000000	          0.00000000	          0.00000000	
